<svg xmlns="http://www.w3.org/2000/svg" width="103.914" height="101.59" viewBox="0 0 103.914 101.59"><g data-name="google plus" transform="translate(-4.204 -4.109)"><path fill="#dc4a38" d="M104.876,4.109H7.447A3.241,3.241,0,0,0,4.2,7.35v95.1A3.243,3.243,0,0,0,7.447,105.7h97.429a3.242,3.242,0,0,0,3.242-3.245V7.351a3.241,3.241,0,0,0-3.242-3.242Z" data-name="Path 22"/><g data-name="Group 3"><path fill="#fff" d="M62.774,63.265,59.5,60.719c-1-.828-2.364-1.921-2.364-3.922s1.365-3.287,2.552-4.469c3.819-3.006,7.634-6.205,7.634-12.947,0-6.933-4.362-10.58-6.453-12.31H66.5l5.916-3.718H54.493c-4.919,0-12.007,1.164-17.2,5.448a16.413,16.413,0,0,0-5.819,12.216c0,7.111,5.459,14.318,15.1,14.318.91,0,1.905-.089,2.908-.183a8.253,8.253,0,0,0-.905,3.556c0,2.824,1.451,4.555,2.73,6.2-4.1.282-11.745.736-17.381,4.2-5.369,3.193-7,7.839-7,11.12,0,6.751,6.362,13.039,19.558,13.039,15.647,0,23.93-8.658,23.93-17.229,0-6.3-3.637-9.4-7.641-12.77ZM50.856,52.781c-7.828,0-11.373-10.119-11.373-16.225a10.525,10.525,0,0,1,2-6.748,8.5,8.5,0,0,1,6.374-3.01c7.546,0,11.46,10.21,11.46,16.776,0,1.643-.181,4.554-2.273,6.659A9.305,9.305,0,0,1,50.856,52.781Zm.09,36.663c-9.734,0-16.011-4.656-16.011-11.131s5.82-8.661,7.823-9.386a36.024,36.024,0,0,1,9.554-1.464,14.762,14.762,0,0,1,2.089.091c6.919,4.924,9.923,7.38,9.923,12.042,0,5.645-4.641,9.849-13.378,9.849Zm34.8-36.8V43.527h-4.5v9.116h-9.1v4.552h9.1v9.172h4.5V57.195H94.9V52.642Z" data-name="Path 23" transform="translate(-4.02 -3.405)"/></g></g></svg>